#!OML:ASF F:\VICON\USERDATA\INSTALL\Justin_Nancy\Justin_Nancy.ASF
:FULLY-SPECIFIED
:DEGREES
211
root 0.218712 17.3589 -11.1829 3.19547 -0.757084 2.4901
lowerback 6.15556 -2.2213 -3.4084
upperback 0.147387 -3.10729 2.89991
thorax -2.95497 -1.48413 5.18779
lowerneck -15.6948 -4.43301 -9.45168
upperneck 21.5328 -5.49137 7.17643
head 9.89383 -2.52995 3.36585
rclavicle 3.29983e-014 1.51076e-014
rhumerus -35.7887 -20.9664 -71.4692
rradius 24.4226
rwrist 11.0323
rhand -14.2755 13.1666
rfingers 7.12502
rthumb 11.8635 -16.4774
lclavicle 3.29983e-014 1.51076e-014
lhumerus -27.3297 1.84232 86.415
lradius 29.1726
lwrist -10.2639
lhand -11.8122 24.6651
lfingers 7.12502
lthumb 14.2379 54.157
rfemur -28.4477 2.10908 20.7532
rtibia 31.5298
rfoot -3.05691 -1.70094
rtoes -3.3483
lfemur 5.32557 -5.13805 -24.8394
ltibia 41.679
lfoot 17.4231 -8.81579
ltoes -6.26375
212
root 0.193073 17.3913 -10.9973 3.03002 -0.744094 2.0905
lowerback 6.32995 -2.13911 -3.05842
upperback 0.194055 -2.97301 2.99621
thorax -3.03203 -1.42013 5.0878
lowerneck -15.8336 -4.48684 -9.46047
upperneck 21.6775 -5.5915 7.30407
head 9.98503 -2.56026 3.39968
rclavicle 3.8763e-014 -4.77083e-015
rhumerus -35.9519 -21.2471 -71.2116
rradius 24.1778
rwrist 11.3254
rhand -14.3162 13.1948
rfingers 7.12502
rthumb 11.8242 -16.4514
lclavicle 3.8763e-014 -4.77083e-015
lhumerus -27.5619 1.58355 86.6557
lradius 29.3356
lwrist -10.2288
lhand -11.5654 23.882
lfingers 7.12502
lthumb 14.4757 53.357
rfemur -27.3351 2.42891 21.3039
rtibia 31.248
rfoot -3.58804 -1.9971
rtoes -3.08928
lfemur 4.04551 -4.93375 -24.1574
ltibia 44.0432
lfoot 18.5823 -8.71077
ltoes -6.4782
213
root 0.168285 17.4163 -10.8101 2.77086 -0.916177 1.69987
lowerback 6.49684 -2.00098 -2.75074
upperback 0.30079 -2.76689 3.07611
thorax -3.04782 -1.32251 4.98562
lowerneck -15.6506 -4.56186 -9.46094
upperneck 21.4809 -5.73555 7.43556
head 9.89837 -2.61538 3.42545
rclavicle 4.50247e-014 -3.49861e-014
rhumerus -35.9949 -21.688 -70.974
rradius 23.8881
rwrist 11.8198
rhand -14.4104 12.6919
rfingers 7.12502
rthumb 11.7333 -16.9594
lclavicle 4.50247e-014 -3.49861e-014
lhumerus -27.7647 1.35606 86.8354
lradius 29.4321
lwrist -10.1754
lhand -10.8003 24.5792
lfingers 7.12502
lthumb 15.2128 53.9999
rfemur -26.1409 2.81931 21.8458
rtibia 30.9172
rfoot -4.07118 -2.2546
rtoes -2.98263
lfemur 2.88107 -4.58267 -23.5454
ltibia 46.3948
lfoot 18.2572 -8.77819
ltoes -7.49574
214
root 0.145542 17.4412 -10.6214 2.61449 -1.08569 1.2584
lowerback 6.59676 -1.8572 -2.36513
upperback 0.300261 -2.5448 3.1535
thorax -3.14089 -1.21433 4.83452
lowerneck -15.5038 -4.61373 -9.45768
upperneck 21.4626 -5.85635 7.57295
head 9.87993 -2.65895 3.4585
rclavicle -4.77083e-015 -2.70347e-014
rhumerus -36.1614 -21.9637 -70.8241
rradius 23.6897
rwrist 12.184
rhand -14.4062 12.2785
rfingers 7.12502
rthumb 11.7374 -17.3727
lclavicle -4.77083e-015 -2.70347e-014
lhumerus -28.0557 1.16725 86.9992
lradius 29.4823
lwrist -10.2098
lhand -10.4693 24.8324
lfingers 7.12502
lthumb 15.5317 54.2286
rfemur -25.0607 3.14684 22.4452
rtibia 30.5658
rfoot -4.5645 -2.48322
rtoes -2.25235
lfemur 1.60738 -4.21502 -22.8781
ltibia 48.7106
lfoot 17.1732 -8.65457
ltoes -8.27992
215
root 0.127246 17.4634 -10.4396 2.61049 -1.0794 0.810773
lowerback 6.56212 -1.77598 -1.86836
upperback 0.345041 -2.39701 3.22791
thorax -3.1069 -1.14849 4.61526
lowerneck -15.6986 -4.64941 -9.47553
upperneck 21.5523 -5.92552 7.72099
head 9.9606 -2.67164 3.50393
rclavicle -4.03533e-014 5.00937e-014
rhumerus -36.0789 -22.5106 -70.6538
rradius 23.3156
rwrist 13.1251
rhand -14.7879 11.9177
rfingers 7.12502
rthumb 11.3693 -17.754
lclavicle -4.03533e-014 5.00937e-014
lhumerus -28.1542 1.0678 87.1368
lradius 29.4877
lwrist -10.4399
lhand -10.8459 24.3644
lfingers 7.12502
lthumb 15.169 53.7884
rfemur -24.143 3.30705 23.0526
rtibia 30.2076
rfoot -5.0253 -2.80141
rtoes -1.30097
lfemur 0.100173 -3.96655 -22.1896
ltibia 50.9482
lfoot 15.575 -8.20988
ltoes -6.63989
216
root 0.10933 17.4825 -10.2583 2.48992 -1.04809 0.543762
lowerback 6.52475 -1.70773 -1.50866
upperback 0.51104 -2.28213 3.21943
thorax -2.93898 -1.10141 4.38629
lowerneck -15.7566 -4.75362 -9.52512
upperneck 21.3853 -6.08672 7.89791
head 9.93578 -2.72872 3.54931
rclavicle 4.17448e-015 -4.6118e-014
rhumerus -35.9518 -22.3691 -70.9696
rradius 23.3784
rwrist 13.6473
rhand -15.4551 11.0936
rfingers 7.12502
rthumb 10.7258 -18.6126
lclavicle 4.17448e-015 -4.6118e-014
lhumerus -28.2289 0.845852 87.208
lradius 29.6742
lwrist -10.4957
lhand -10.7268 24.8189
lfingers 7.12502
lthumb 15.2836 54.2342
rfemur -23.0689 3.34297 23.4743
rtibia 29.808
rfoot -5.45511 -3.04916
rtoes 0.263175
lfemur -1.31028 -3.74756 -21.728
ltibia 53.0264
lfoot 13.1775 -8.49463
ltoes -4.82328
217
root 0.090835 17.5065 -10.0803 2.37289 -1.09732 0.540418
lowerback 6.61458 -1.64514 -1.52066
upperback 0.532428 -2.20072 3.18931
thorax -2.97484 -1.06037 4.35788
lowerneck -15.7529 -4.76933 -9.48359
upperneck 21.4164 -6.11047 7.85165
head 9.94556 -2.74143 3.52292
rclavicle -4.07509e-015 6.36111e-015
rhumerus -36.0066 -21.2453 -71.6108
rradius 23.8053
rwrist 12.9469
rhand -15.7499 10.4284
rfingers 7.12502
rthumb 10.4414 -19.2923
lclavicle -4.07509e-015 6.36111e-015
lhumerus -28.6048 0.811827 87.268
lradius 30.1041
lwrist -10.3343
lhand -10.3571 25.4863
lfingers 7.12502
lthumb 15.6398 54.8741
rfemur -22.0437 3.39691 23.6012
rtibia 29.4194
rfoot -5.94873 -3.22456
rtoes 1.28056
lfemur -2.69599 -3.47852 -21.5839
ltibia 54.8983
lfoot 11.085 -8.41465
ltoes -3.82751
218
root 0.070324 17.5387 -9.90479 2.46186 -1.36613 0.414746
lowerback 6.68596 -1.51873 -1.46336
upperback 0.384171 -2.02384 3.23165
thorax -3.18404 -0.966948 4.36137
lowerneck -15.542 -4.72089 -9.51929
upperneck 21.3781 -6.04243 7.82096
head 9.88553 -2.72116 3.52957
rclavicle 1.14301e-014 -3.10104e-014
rhumerus -36.1282 -20.9159 -71.6867
rradius 23.8022
rwrist 12.7462
rhand -15.6995 10.6085
rfingers 7.12502
rthumb 10.49 -19.1097
lclavicle 1.14301e-014 -3.10104e-014
lhumerus -29.1753 1.08704 87.3406
lradius 30.5396
lwrist -10.1844
lhand -10.314 25.6408
lfingers 7.12502
lthumb 15.6813 55.0254
rfemur -21.3122 3.75969 23.8197
rtibia 29.0456
rfoot -6.50625 -3.38287
rtoes 3.51726
lfemur -4.30466 -2.95519 -21.2737
ltibia 56.5411
lfoot 9.55551 -8.15683
ltoes -5.33777
219
root 0.0488767 17.5665 -9.72756 2.4425 -1.57023 0.296544
lowerback 6.77914 -1.38333 -1.35315
upperback 0.324381 -1.83457 3.19956
thorax -3.31887 -0.871181 4.25348
lowerneck -15.2865 -4.69781 -9.59667
upperneck 21.3146 -6.04695 7.9723
head 9.82263 -2.71886 3.59818
rclavicle 8.94531e-015 4.77083e-015
rhumerus -36.1932 -21.0191 -71.699
rradius 23.6561
rwrist 13.1049
rhand -15.4374 11.0589
rfingers 7.12502
rthumb 10.7429 -18.6464
lclavicle 8.94531e-015 4.77083e-015
lhumerus -29.6851 1.19989 87.352
lradius 31.0046
lwrist -9.8238
lhand -10.1205 26.5287
lfingers 7.12502
lthumb 15.8676 55.8985
rfemur -20.4581 4.07031 24.0514
rtibia 28.6673
rfoot -7.01853 -3.60658
rtoes 5.83613
lfemur -5.79654 -2.49303 -20.9508
ltibia 57.9934
lfoot 8.59678 -8.18528
ltoes -4.96349
